<?xml version="1.0" encoding="UTF-8"?><svg version="1.1" width="216px" height="114px" viewBox="0 0 216.0 114.0" xmlns="http://www.w3.org/2000/svg" xmlns:xlink="http://www.w3.org/1999/xlink"><defs><clipPath id="i0"><path d="M1440,0 L1440,1024 L0,1024 L0,0 L1440,0 Z"></path></clipPath><clipPath id="i1"><path d="M219,0 L219,113 L0,113 L0,0 L219,0 Z"></path></clipPath><clipPath id="i2"><path d="M117.329624,1.78160938 C129.045978,8.69150075 140.966746,15.2574301 152.85089,21.8804026 C155.187176,23.1821798 157.805384,23.979082 160.137412,25.286819 C162.287171,26.4915376 164.237625,28.0546919 166.254514,29.4892862 C167.268069,30.2095632 168.150458,31.1563102 169.23641,31.7241882 C174.612509,34.5320765 180.114664,37.1083864 185.410701,40.0567543 C186.644854,40.7442528 187.768494,41.6243785 188.879998,42.5300459 L189.991099,43.4380389 C190.733994,44.0407924 191.486069,44.6301443 192.276471,45.1565879 C193.771252,46.1527157 195.518143,46.7852994 197.183269,47.5089819 C198.075879,47.896365 199.104765,48.0002347 199.953085,48.4540262 C205.637509,51.4900874 211.310861,54.5491362 216.943331,57.6797018 C219.426966,59.059807 219.640749,60.2142935 217.695405,62.2627409 C216.681851,63.3303855 215.352305,64.2081699 214.006577,64.8245771 C212.207608,65.6486022 210.356493,66.362294 208.497307,67.0543907 L206.265232,67.8802203 C198.838941,70.6339886 192.035113,74.5666234 185.247478,78.5298682 L183.103845,79.7810975 C179.887083,81.6554498 176.659635,83.50955 173.357064,85.2213573 C166.522808,88.7631449 159.755839,92.4343439 152.976094,96.0791499 C150.965167,97.1604168 149.057299,97.2557726 146.801074,96.5857277 C145.364211,96.1583293 143.418016,96.4648301 142.002446,97.1076305 C134.767027,100.393149 127.647442,103.932383 120.451203,107.306446 L118.117417,108.400974 C115.002332,109.857248 111.867841,111.281592 108.642862,112.439484 C106.967516,113.041418 104.559684,113.286618 103.106638,112.519515 C97.6794352,109.653732 92.5094536,106.303507 87.2466337,103.129521 C86.7884047,102.852819 86.3770207,102.490977 85.9034606,102.249182 C76.1988856,97.2949366 66.5386003,92.2504434 56.7658871,87.4332717 C44.9669159,81.6182695 33.0512581,76.0399541 21.2275868,70.2743325 C15.4375481,67.4519705 9.71649922,64.4840206 4.02015045,61.475204 C2.73915336,60.7991993 1.69238113,59.6804712 0,58.3386786 C3.14202013,56.5184041 5.59584501,55.075296 8.07011134,53.6687976 C16.7807212,48.7179575 25.4240447,43.6411115 34.239417,38.8826858 C40.5353814,35.4847833 47.1107122,32.6079323 53.4739631,29.3292246 C56.9660429,27.5302349 60.0578112,24.6389102 63.7193846,23.5576433 C69.6618824,21.8037774 74.1632585,18.2985996 78.7523625,14.4792585 C80.3042087,13.1879817 82.2489848,12.3644026 84.2119312,11.5683202 L85.1931835,11.1705325 C85.8460479,10.904151 86.4939912,10.6326728 87.1231334,10.3397942 C88.6613519,9.62377417 90.208354,8.92467553 91.7571526,8.22920861 L94.8550752,6.83917936 C98.4672825,5.21393999 102.063912,3.56023665 105.556205,1.70924112 C109.696448,-0.485645513 113.160421,-0.677208544 117.329624,1.78160938 Z"></path></clipPath></defs><g transform="translate(-806.0 -306.0)"><g clip-path="url(#i0)"><g transform="translate(796.0000000000001 326.0289509090578) rotate(-10.0)"><g clip-path="url(#i1)"><g clip-path="url(#i2)"><polygon points="1.4791142e-31,-2.28123076e-13 219,-2.28123076e-13 219,113 1.4791142e-31,113 1.4791142e-31,-2.28123076e-13" stroke="none" fill="#000000"></polygon></g></g></g></g></g></svg>