<?xml version="1.0" encoding="UTF-8"?><svg version="1.1" width="94px" height="60px" viewBox="0 0 94.0 60.0" xmlns="http://www.w3.org/2000/svg" xmlns:xlink="http://www.w3.org/1999/xlink"><defs><clipPath id="i0"><path d="M1440,0 L1440,1024 L0,1024 L0,0 L1440,0 Z"></path></clipPath><clipPath id="i1"><path d="M94,0 L94,37.0508832 L92.4521784,37.8088546 L48.2115496,59.4122875 L47.0040214,60 L45.788173,59.4122875 L1.55586436,37.8088546 L0,37.0508832 L0,0 L3.97092085,1.94145095 L47.0040214,22.9491168 L90.0290792,1.94145095 L94,0 Z"></path></clipPath><clipPath id="i2"><path d="M8.0411791,2.84212666 L8.0411791,8.64107263 C8.0411791,11.3518176 6.88259583,13.2648402 4.53181094,14.4145564 C3.8758361,14.7405285 3.54354219,14.9033747 2.88756735,15.2293468 L2.88756735,23.1388573 C1.72926193,23.7051814 1.1499703,23.9880636 0,24.5543877 L0,2.73915864 C1.81428027,1.85553638 2.71725284,1.40952818 4.53181094,0.517231983 C6.88259583,-0.632484254 8.0411791,0.131101925 8.0411791,2.84212666 Z"></path></clipPath><clipPath id="i3"><path d="M6.53363166,0 C7.44493936,6.83702026 8.3565249,13.6743203 9.25949747,20.5113406 C8.1178623,21.0689907 7.54718364,21.351873 6.39721335,21.918197 C6.2524599,20.6143086 6.17577669,19.9707585 6.02241027,18.675544 C4.82131784,19.2589361 4.2250781,19.5504923 3.02398567,20.1422786 C2.88784519,21.583551 2.81949711,22.3043271 2.67474367,23.7453197 C1.61006955,24.2688337 1.07328709,24.5346479 0,25.0578821 C0.902972568,17.3285656 1.80594514,9.60792313 2.70030473,1.88728061 C4.23369107,1.13236836 5.00024532,0.754912243 6.53363166,0 Z"></path></clipPath><clipPath id="i4"><path d="M8.39903407,2.83219033 L8.39903407,7.29311171 C7.25767674,7.84208792 6.69561105,8.12524996 5.56258886,8.68290011 L5.56258886,4.41056689 C5.56258886,3.5442925 5.21334685,3.30394053 4.4806888,3.66432858 C4.28481321,3.75862266 4.1911819,3.81010667 3.99530632,3.90468055 C3.2370872,4.27346274 2.88784519,4.84818095 2.88784519,5.72312928 L2.88784519,19.5004176 C2.88784519,20.3753659 3.2370872,20.607044 3.99530632,20.2295879 C4.20813,20.1266198 4.31898725,20.0751358 4.53181094,19.9634939 C5.26446899,19.6117798 5.613711,19.0370615 5.613711,18.1621132 L5.613711,13.2378358 C6.74645535,12.6804654 7.31741185,12.3973034 8.45015621,11.8396532 L8.45015621,16.9267768 C8.45015621,19.6375218 7.28323781,21.5505444 4.94078805,22.6999808 C4.37010939,22.9831429 4.08032466,23.1205268 3.50964599,23.4036888 C1.15858326,24.5531253 0,23.781145 0,21.0701202 L0,6.98420766 C0,4.27346274 1.15858326,2.36044012 3.50964599,1.21100369 C4.07171169,0.936515586 4.35288345,0.799131631 4.91522698,0.524643525 C7.25767674,-0.633466843 8.39903407,0.1214454 8.39903407,2.83219033 Z"></path></clipPath><clipPath id="i5"><path d="M8.91025546,0 L5.66483313,12.3102739 C6.71255915,15.492769 7.7516722,18.6842179 8.79939822,21.866713 C7.55579661,22.4758472 6.93399581,22.7844714 5.6903942,23.3936056 C4.7532476,20.2883365 3.82471396,17.1827876 2.88784519,14.0859126 L2.88784519,24.7747201 C1.72926193,25.3410441 1.1499703,25.6242062 0,26.1902505 L0,4.37502143 C1.1499703,3.80897715 1.72926193,3.52581511 2.88784519,2.9510969 L2.88784519,13.4854524 C3.88444907,9.48788704 4.88105295,5.4816478 5.88626979,1.48408248 C7.09569736,0.892296198 7.70055006,0.592066088 8.91025546,0 Z"></path></clipPath><clipPath id="i6"><path d="M0,0 C1.11579626,0.548976212 1.67813979,0.823744123 2.79393604,1.37244053 L4.09727276,17.5605235 C4.55709417,12.610504 5.02580639,7.65209044 5.49424078,2.69367686 C6.5589149,3.225585 7.09569736,3.48272524 8.16037147,4.00623925 C8.62880586,9.41933497 9.09751808,14.8324307 9.56595247,20.2452466 C10.0004906,15.2784389 10.4264159,10.3029572 10.8606762,5.33586971 C11.874506,5.83336191 12.3854496,6.08210802 13.3992794,6.57988002 C12.6666213,13.4941263 11.9339633,20.3999784 11.2013052,27.3142247 C9.8896334,26.6706746 9.24227153,26.3533764 7.93032185,25.7101061 C7.5130096,21.1204747 7.10431033,16.5308433 6.68672024,11.9498859 C6.2863561,16.1363191 5.89460492,20.3227524 5.49424078,24.5175798 C4.17395597,23.8656356 3.51798112,23.5483374 2.19769631,22.8961134 C1.46503826,15.2613708 0.732380212,7.63502238 0,0 Z"></path></clipPath><clipPath id="i7"><path d="M3.37322768,0.482080108 C3.96113228,0.773916086 4.25925214,0.919694173 4.84687891,1.21125035 C7.10431033,2.31787671 8.22038442,4.20515732 8.22038442,6.91618205 L8.22038442,21.0020946 C8.22038442,23.7215135 7.10431033,24.5105619 4.84687891,23.4039355 C4.25925214,23.1123793 3.96113228,22.9666012 3.37322768,22.6747653 C1.11607409,21.5681389 0,19.6808583 0,16.9701134 L0,2.88420079 C0,0.173176062 1.11607409,-0.624546252 3.37322768,0.482080108 Z"></path></clipPath><clipPath id="i8"><path d="M0,0 C1.10718329,0.540582081 1.66091385,0.815070187 2.76837497,1.3640464 C2.76837497,7.62634844 2.76837497,13.8886505 2.77698794,20.1509525 C3.99502848,20.7514127 4.60821631,21.0519227 5.83486982,21.6523829 L5.83486982,24.680426 C3.50075519,23.5309896 2.33411463,22.9562713 0,21.815229 L0,0 Z"></path></clipPath><clipPath id="i9"><path d="M0,0 C2.41913297,1.18385237 3.62883837,1.77591846 6.04797134,2.96816496 L6.04797134,5.98781394 C4.73602166,5.34454364 4.08032466,5.02724547 2.77698794,4.38369537 L2.77698794,10.6804134 C4.02892468,11.2895475 4.65933845,11.5981718 5.91155302,12.2159798 L5.91155302,15.2440229 C4.65933845,14.6264947 4.02892468,14.3175906 2.77698794,13.7000623 L2.77698794,23.1706015 C1.66952682,22.6302992 1.10746112,22.3558111 0,21.815229 L0,0 Z"></path></clipPath><clipPath id="i10"><path d="M1.06467412,0.161123905 C1.28611077,0.272765856 1.40530315,0.324249864 1.63535278,0.435612011 C2.33383679,0.787326128 2.6661307,1.35365021 2.6661307,2.22859854 L2.6661307,15.9972129 C2.6661307,16.8721613 2.33383679,17.1125132 1.63535278,16.7691932 C1.52032797,16.7135122 1.43301747,16.6706322 1.34678359,16.6277521 L1.06467412,16.486311 C0.332016067,16.1345969 0,15.5682728 0,14.6933245 L0,0.916036148 C0,0.0410878216 0.332016067,-0.198984345 1.06467412,0.161123905 Z"></path></clipPath><clipPath id="i11"><path d="M1.1669184,0 C1.55866957,3.48300504 1.95903372,6.96573028 2.35106273,10.4487353 C1.99963275,10.6223889 1.71411543,10.7635021 1.44463673,10.8960376 L0.912286643,11.1567716 C0.642026519,11.2885201 0.354555652,11.427666 0,11.5981718 C0.391751176,7.73799039 0.77516722,3.86885529 1.1669184,0 Z"></path></clipPath><clipPath id="i12"><path d="M2.26576655,0.909347558 L2.26576655,6.39099535 C2.26576655,7.26594368 1.91652455,7.8409417 1.1838665,8.20104995 C0.706819142,8.43272798 0.468434384,8.55276407 0,8.7844421 L0,0.746221599 C0.468434384,0.514823369 0.706819142,0.394507481 1.1838665,0.163109251 C1.91652455,-0.197278803 2.26576655,0.0343992319 2.26576655,0.909347558 Z"></path></clipPath></defs><g transform="translate(-569.0 -330.0)"><g clip-path="url(#i0)"><g transform="translate(222.15387968240202 114.00000000000017)"><g transform="translate(346.846120317598 215.9999999999999)"><g clip-path="url(#i1)"><polygon points="0,0 94,0 94,60 0,60 0,0" stroke="none" fill="#000000"></polygon></g><g transform="translate(7.690909090909145 11.14285714285711)"><g transform="translate(40.94722206622623 16.58846946911638)"><g clip-path="url(#i2)"><polygon points="0,0 8.0411791,0 8.0411791,24.5543877 0,24.5543877 0,0" stroke="none" fill="#FFFFFF"></polygon></g></g><g transform="translate(49.51654287124552 11.881333792549409)"><g clip-path="url(#i3)"><polygon points="0,0 9.25949747,0 9.25949747,25.0578821 0,25.0578821 0,0" stroke="none" fill="#FFFFFF"></polygon></g></g><g transform="translate(60.18137127690101 6.767226748647547)"><g clip-path="url(#i4)"><polygon points="0,-2.77555756e-15 8.45015621,-2.77555756e-15 8.45015621,23.9189329 0,23.9189329 0,-2.77555756e-15" stroke="none" fill="#FFFFFF"></polygon></g></g><g transform="translate(71.41701726436258 2.7980439085695252e-05)"><g clip-path="url(#i5)"><polygon points="0,0 8.91025546,0 8.91025546,26.1902505 0,26.1902505 0,0" stroke="none" fill="#FFFFFF"></polygon></g></g><g clip-path="url(#i6)"><polygon points="0,0 13.3992794,0 13.3992794,27.3142247 0,27.3142247 0,0" stroke="none" fill="#FFFFFF"></polygon></g><g transform="translate(14.7875788807869 8.242276718203131)"><g clip-path="url(#i7)"><polygon points="0,-4.4408921e-15 8.22038442,-4.4408921e-15 8.22038442,23.8875825 0,23.8875825 0,-4.4408921e-15" stroke="none" fill="#FFFFFF"></polygon></g></g><g transform="translate(25.5803515533787 12.559020023987499)"><g clip-path="url(#i8)"><polygon points="0,0 5.83486982,0 5.83486982,24.680426 0,24.680426 0,0" stroke="none" fill="#FFFFFF"></polygon></g></g><g transform="translate(33.33194040085505 16.36785727644428)"><g clip-path="url(#i9)"><polygon points="0,0 6.04797134,0 6.04797134,23.1706015 0,23.1706015 0,0" stroke="none" fill="#FFFFFF"></polygon></g></g><g transform="translate(17.56467795948856 11.728715941268089)"><g clip-path="url(#i10)"><polygon points="0,3.33066907e-15 2.6661307,3.33066907e-15 2.6661307,16.9193795 0,16.9193795 0,3.33066907e-15" stroke="none" fill="#1D1D1B"></polygon></g></g><g transform="translate(52.86437618044079 17.302991526687613)"><g clip-path="url(#i11)"><polygon points="0,0 2.35106273,0 2.35106273,11.5981718 0,11.5981718 0,0" stroke="none" fill="#1D1D1B"></polygon></g></g><g transform="translate(43.83501168987391 20.099569166707397)"><g clip-path="url(#i12)"><polygon points="0,4.16333634e-16 2.26576655,4.16333634e-16 2.26576655,8.7844421 0,8.7844421 0,4.16333634e-16" stroke="none" fill="#1D1D1B"></polygon></g></g></g></g></g></g></g></svg>